<svg width="3010" height="2571" viewBox="0 0 3010 2571" fill="none" xmlns="http://www.w3.org/2000/svg">
<g id="Logo">
<g id="letra_G">
<path d="M2945 1085H1681L1451 2568H1078L1245 1472L1359 719H3007L2945 1085Z" fill="url(#paint0_linear_105_8)"/>
<path d="M2465 1824H1969H1955L2011 1473H2877L2711 2568H1843L1899 2227H2405L2465 1824Z" fill="url(#paint1_linear_105_8)"/>
<path d="M2945 1085H1681L1451 2568H1078L1245 1472L1359 719H3007L2945 1085Z" stroke="#41FB74" stroke-width="5"/>
<path d="M2465 1824H1969H1955L2011 1473H2877L2711 2568H1843L1899 2227H2405L2465 1824Z" stroke="#41FB74" stroke-width="5"/>
</g>
<path id="letra_E" d="M479 1085L421 1475H1249L1193 1831H3L281 3H1647L1585 365H585L535 723H1025L967 1085H479Z" fill="url(#paint2_radial_105_8)" stroke="white" stroke-width="5"/>
</g>
<defs>
<linearGradient id="paint0_linear_105_8" x1="2417" y1="2568" x2="745" y2="1190" gradientUnits="userSpaceOnUse">
<stop stop-color="#41FB74"/>
<stop offset="1" stop-color="#41FB74" stop-opacity="0"/>
</linearGradient>
<linearGradient id="paint1_linear_105_8" x1="2417" y1="2568" x2="745" y2="1190" gradientUnits="userSpaceOnUse">
<stop stop-color="#41FB74"/>
<stop offset="1" stop-color="#41FB74" stop-opacity="0"/>
</linearGradient>
<radialGradient id="paint2_radial_105_8" cx="0" cy="0" r="1" gradientUnits="userSpaceOnUse" gradientTransform="translate(225 -50) rotate(57.4029) scale(2791.76 2510.75)">
<stop stop-color="#FDFDFD"/>
<stop offset="1" stop-color="#EEEEEE" stop-opacity="0"/>
</radialGradient>
</defs>
</svg>
